<svg width="181" height="167" viewBox="0 0 181 167" fill="none" xmlns="http://www.w3.org/2000/svg">
    <path
        d="M70.7251 29.9774C75.3695 30.2241 79.8231 28.919 81.0669 23.9496C81.6403 21.6586 81.0231 18.3807 78.8066 17.1966C77.3496 16.4192 75.9942 15.6587 74.4255 15.1206C72.9537 14.6169 71.4363 14.5229 69.89 14.6942C68.3437 14.8655 67.6474 14.1962 66.4986 13.1796C66.2631 12.971 65.6077 12.4292 65.2623 12.6769C65.0138 12.8547 65.0231 13.875 64.97 14.1636C64.8797 14.6626 64.538 15.0647 64.4887 15.5702C63.6807 15.4985 63.1193 14.3693 62.7367 13.7791C62.2107 12.9683 61.5711 12.2663 61.102 11.4127C60.8283 10.9155 60.576 10.4259 60.5443 9.86357C60.5201 9.41765 60.5443 8.96149 60.5443 8.51464C60.5443 7.65072 60.4568 6.68069 61.1951 6.13516C62.031 5.51608 63.3539 5.18746 64.3612 5.04689C65.8944 4.8337 67.5487 4.79926 68.987 4.16994C70.3732 3.5639 71.2948 2.14608 72.856 2.00737C74.7244 1.84074 76.5499 1.43671 78.4183 1.22166C81.1963 0.900487 84.031 0.89211 86.7828 1.43857C89.0813 1.89566 91.3035 2.77726 93.1765 4.20718C94.1317 4.93704 94.8206 5.90522 95.7115 6.67417C98.7901 9.33573 102.092 12.2794 105.659 14.2893C103.626 15.5963 100.636 13.0073 98.5629 13.2345C99.3393 14.4894 100.33 15.4678 101.408 16.4518C105.694 20.3701 109.216 26.8141 115.284 28.1109C117.041 28.4861 118.456 28.2152 119.963 27.2582C123.722 24.8731 127.151 22.0551 130.8 19.5584C132.079 18.6824 133.553 17.9599 134.935 17.2683C136.715 16.3783 138.455 15.2556 140.343 14.6076C142.211 13.9662 144.935 14.2725 146.813 14.8255C151.974 16.3429 155.53 20.3757 158.509 24.6404C159.657 26.2844 161.091 27.9917 161.965 29.794C162.891 31.7025 163.747 33.5457 164.833 35.389C165.596 36.6858 166.204 38.0645 166.831 39.4283C167.337 40.5222 168.075 41.2706 168.543 42.4036C169.26 44.1445 170 45.8397 170.871 47.5173C172.317 50.3045 174.293 52.3228 176.048 54.8484C177.008 56.2299 178.024 57.6068 179.27 58.7481C179.67 59.114 180.569 59.4882 180.217 59.9732C180.046 60.2115 179.384 60.2041 179.135 60.2283C177.238 60.4107 175.399 59.6958 173.526 59.6977C171.206 59.7004 171.293 62.8386 171.349 64.4482C171.493 68.5695 172.221 72.3947 172.924 76.4452C173.584 80.2286 174.169 84.0631 175.473 87.691C176.317 90.0369 176.899 92.4034 177.997 94.6442C178.264 95.1869 178.701 95.7315 178.89 96.3031C179.046 96.7779 178.808 96.8551 178.326 96.9091C177.622 96.9864 176.844 96.7825 176.175 96.5768C174.846 96.1681 173.608 95.5146 172.437 94.7643C172.046 94.512 171.616 93.8491 171.08 94.0577C170.484 94.2904 170.693 95.2279 170.742 95.6822C170.899 97.167 171.262 98.6286 171.473 100.106C171.992 103.675 172.284 107.272 173.32 110.741C174.495 114.675 175.286 118.866 177.084 122.581C177.597 123.644 178.857 124.954 178.69 126.199C177.657 126.348 176.693 126.062 175.76 125.603C172.686 124.093 169.522 122.066 167.051 119.681C165.351 118.039 164.989 120.562 164.851 121.964C164.604 124.454 164.832 127.016 165.048 129.496C165.349 132.949 165.842 136.379 166.34 139.807C166.828 143.174 166.733 146.578 167.28 149.936C167.566 151.694 167.495 153.483 167.675 155.249C167.751 156.018 168.873 158.92 168.354 159.5C166.856 161.176 163.859 156.194 163.294 155.352C158.07 147.543 153.897 139.757 153.414 130.192C153.296 127.897 153.91 125.779 154.235 123.54C154.608 120.947 154.952 117.147 154.359 114.613C153.542 111.113 149.757 108.752 148.294 105.448C145.993 100.25 146.219 94.0782 146.219 88.5195C146.219 85.3376 145.724 82.1258 144.193 79.2679C142.411 75.9453 139.765 72.8267 137.311 69.9743C135.684 68.0835 134.408 66.8873 132.302 65.5765C129.613 63.9036 127.151 61.9003 124.845 59.7358C123.273 58.2603 121.107 55.0355 118.925 54.6278C115.86 54.0562 114.896 58.1495 114.269 60.3139C113.845 61.7671 113.527 63.3227 112.836 64.68C112.039 66.2515 109.967 66.7253 110.58 68.8348C110.963 70.1521 112.065 71.1389 112.398 72.5195C113.13 75.5543 112.561 78.7037 112.737 81.7842C112.898 84.5779 113.38 87.299 113.716 90.0686C113.83 91.0256 113.707 91.9454 113.882 92.8819C114.109 94.1172 114.836 95.2521 115.185 96.4567C115.732 98.3521 116.295 101.543 118.233 102.579C119.589 103.304 122.693 103.884 124.256 103.961C126.835 104.089 129.425 104.245 132.002 104.051C134.076 103.896 136.541 103.077 138.384 104.484C140.099 105.791 140.16 108.12 139.725 110.054C139.269 112.086 139.326 115.387 137.28 116.634C136.829 115.989 136.602 115.096 135.975 114.532C136.191 114.726 136.362 117.075 136.384 117.468C136.444 118.45 136.248 119.322 135.851 120.223C135.034 122.065 133.847 122.168 133.189 120.047C132.913 119.16 132.047 112.493 129.984 113.736C129.063 114.293 129.898 117.509 130.08 118.343C130.566 120.592 130.704 122.927 128.75 124.447C127.111 125.722 124.609 125.778 125.389 123.152C125.797 121.785 126.407 120.787 126.489 119.345C126.591 117.54 125.709 116.281 124.349 115.205C122.602 113.822 120.902 113.698 119.016 112.717C117.425 111.894 116.02 110.265 114.264 109.804C112.424 109.32 111.593 110.613 110.428 111.817C108.879 113.418 107.099 115.644 106.582 117.825C105.827 121.016 126.223 141.278 130.126 145.682C131.336 147.044 131.092 148.63 129.581 149.609C128.088 150.577 125.828 150.945 124.188 150.226C124.426 150.331 123.53 152.91 123.39 153.167C122.959 153.962 122.188 154.749 121.431 155.257C120.479 155.897 119.329 156.093 118.209 155.871C117.111 155.653 116.537 155.157 116.264 156.537C115.97 158.028 115.34 159.633 113.844 160.247C112.95 160.616 111.993 160.894 111.029 161C110.089 161.1 109.236 160.67 108.372 160.711C106.873 160.781 106.558 162.771 105.565 163.582C103.523 165.253 101.512 163.521 99.7843 162.438C98.1496 164.862 96.0205 165.679 93.1626 164.677C92.3769 164.402 91.5567 164.156 90.8352 163.733C90.2962 163.414 89.7972 162.548 89.1865 162.544C88.0703 162.538 87.2502 164.453 86.4784 165.048C84.1259 166.867 81.105 163.826 80.4348 161.658C79.4805 162.768 78.7395 163.644 77.1523 163.832C75.2876 164.052 72.6819 163.502 72.1708 161.397C71.8794 160.198 71.845 159.842 70.4877 160.465C69.2951 161.012 68.5225 161.271 67.2303 160.698C66.5507 160.396 66.0201 159.969 65.5295 159.414C64.7773 158.567 63.5615 156.799 63.7998 155.607C62.2284 156.094 59.0911 157.09 57.8204 155.488C57.4443 155.014 57.0794 153.238 56.9798 152.627C56.9194 152.256 56.9283 151.877 57.0058 151.51C56.8392 152.275 53.3593 150.234 53.0726 149.894C52.1864 148.847 51.9387 147.007 52.1445 145.682C52.3949 144.066 54.8405 142.14 55.8719 141.029C58.4748 138.221 61.1485 135.48 63.7626 132.683C66.5116 129.741 69.2458 126.765 71.7268 123.59C72.6987 122.348 73.8149 121.217 74.6592 119.882C75.5324 118.503 76.7715 116.728 75.215 115.372C73.8046 114.143 71.7891 114.21 70.4616 112.771C69.5269 111.759 68.8511 110.777 67.451 110.592C65.8823 110.384 64.5073 110.885 63.178 111.7C60.8255 113.141 58.0317 114.145 56.1959 116.297C55.0173 117.677 54.3033 119.591 54.5472 121.417C54.6831 122.439 55.1272 123.195 55.7398 123.997C56.2695 124.689 56.7601 125.495 55.5312 125.819C53.1573 126.439 51.1837 123.778 50.1457 122.026C49.306 120.609 49.32 118.766 49.6607 117.201C49.8832 116.173 51.342 114.146 50.0024 113.533C46.7171 112.024 46.8381 117.622 46.5505 119.518C46.4313 120.311 46.2488 121.111 46.2544 121.916C46.2581 122.395 47.1267 124.129 46.1436 124.082C45.4454 124.051 44.6066 122.55 44.2538 122.04C43.7493 121.307 43.4104 120.498 43.1199 119.659C42.782 118.686 42.3631 117.736 42.1546 116.717C41.9823 115.878 41.8809 114.969 41.9451 114.118C42.0149 113.188 42.2653 112.325 42.3743 111.408C42.4515 110.749 42.2495 110.24 42.1341 109.563C41.7822 107.506 42.8388 105.019 44.6178 103.904C47.3501 102.194 51.2992 104.148 54.2596 104.266C56.2704 104.346 58.3976 104.529 60.3367 103.868C61.9603 103.315 63.9432 101.367 64.4934 99.7159C64.9263 98.4163 64.8816 96.9017 64.7345 95.5602C64.5017 93.433 64.8248 91.1513 65.2018 89.0539C65.469 87.5737 66.0918 86.275 66.2715 84.7576C66.6094 81.9108 67.2331 79.1096 67.7265 76.2888C67.9509 75.0079 68.0477 73.8926 67.9909 72.6312C67.9323 71.2832 68.6314 70.1204 69.1611 68.9288C70.0743 66.878 69.1769 65.988 67.6977 64.6847C66.9231 64.0023 65.8618 63.4428 65.2586 62.5901C63.905 60.6761 65.0482 58.1458 63.6183 56.3891C63.1156 55.771 62.1986 55.5056 61.4557 55.4312C60.0789 55.2934 59.2643 56.2271 58.257 56.9653C57.1641 57.7697 57.0635 58.6019 56.3942 59.7638C54.901 62.3583 51.4453 59.4724 50.304 62.362C49.8022 63.6327 49.2399 65.0394 47.9766 65.732C46.7162 66.4237 45.0228 66.2114 44.2548 67.7391C43.4067 69.4269 43.5072 72.0643 41.6155 73.0185C40.5003 73.5817 39.6243 73.0669 39.0089 74.3534C38.5165 75.3812 38.5714 76.5868 38.1934 77.6508C37.6637 79.1403 36.8193 80.6596 35.6957 81.7823C35.0226 82.4544 34.1159 82.6984 33.7147 83.6442C33.3302 84.5472 33.2138 85.844 33.0556 86.8168C32.7977 88.3994 32.7679 89.9997 32.7735 91.5981C32.7884 95.9214 32.942 100.503 32.2838 104.789C31.9925 106.727 31.3939 108.607 30.5104 110.357C30.178 111.01 29.7889 111.711 29.3532 112.302C28.9017 112.918 28.1895 113.23 27.5202 113.55C26.8546 113.87 26.4654 114.128 26.3761 114.894C26.2439 116.032 25.9283 117.141 25.8669 118.271C25.7961 119.589 25.8864 120.907 25.8883 122.225C25.8901 124.065 25.9078 125.891 25.7812 127.726C25.4954 131.845 25.5736 135.969 25.5773 140.097C25.5801 142.438 25.6602 144.694 24.4323 146.743C23.2379 148.733 23.0591 151.117 21.7754 153.069C21.3741 153.675 20.8165 153.902 20.3194 154.477C19.8325 155.039 19.5234 155.741 19.0338 156.302C18.1717 157.292 14.9758 160.558 13.396 159.509C12.4827 158.901 12.5135 156.338 12.3831 155.456C11.9875 152.799 12.2668 150.119 12.0136 147.479C11.7054 144.27 11.8134 140.903 11.9 137.677C11.9903 134.255 13.4137 131.092 13.6762 127.684C13.8261 125.74 14.0132 123.785 14.394 121.871C14.7179 120.251 15.6973 119.06 15.5241 117.3C14.9842 117.352 14.6444 117.906 14.3158 118.34C13.5878 119.308 12.9045 120.251 12.1141 121.174C11.0761 122.383 9.83143 123.437 8.3652 124.086C7.26297 124.575 4.90118 125.347 3.7161 125.024C3.22084 124.889 2.99741 124.675 2.89408 124.193C2.666 123.123 4.08754 121.511 4.52043 120.62C5.65431 118.29 6.27152 116.167 6.69044 113.633C7.13171 110.966 7.41378 108.309 7.8746 105.654C8.42013 102.511 9.46557 99.0689 9.30173 95.8832C7.98166 95.8097 7.09913 96.0787 5.93918 96.6624C5.09668 97.086 3.64441 97.9779 2.75443 97.1577C2.15863 96.6103 2.32341 95.4764 2.38299 94.7429C2.56452 92.4248 4.45061 90.7668 4.8565 88.5865C5.23818 86.5366 5.38806 84.4727 5.94942 82.42C6.88501 78.9942 8.45178 75.721 8.68452 72.1769C8.85022 69.6326 8.88094 67.0809 8.88187 64.5329C8.88281 63.1496 9.61638 60.2851 7.89415 59.7749C6.24545 59.2871 -0.110994 61.8528 1.16905 57.6412C1.55539 56.3695 3.32231 55.2124 4.27466 54.3904C5.61987 53.2286 7.02093 52.1282 8.341 50.9561C9.59218 49.8465 10.4552 48.3504 11.3805 46.9782C13.072 44.4684 14.4107 41.7464 15.6805 39.0057C16.3266 37.6093 16.9559 36.2054 17.6141 34.8137C18.1242 33.7375 18.8169 32.7544 19.2944 31.6634C20.297 29.3705 21.4663 27.3243 22.7882 25.1905C24.1018 23.0717 25.6397 21.0293 27.2437 19.1199C28.8868 17.164 30.6984 14.9819 33.2576 14.2567C36.042 13.4672 38.5481 13.3695 41.3912 14.1245C44.7379 15.0126 47.743 16.8205 50.5367 18.8173C51.6529 19.6152 52.1379 20.412 52.9423 21.4565C55.3218 24.5473 58.3026 26.5488 61.91 27.9731C64.2988 28.9171 67.5571 29.8089 70.7251 29.9774ZM78.4621 105.161C78.4649 105.037 78.4668 104.915 78.4668 104.793C78.4714 103.94 78.4695 103.084 78.4686 102.229C78.4668 101.512 78.4044 100.807 78.6092 100.121C78.9927 98.8446 78.113 97.3029 77.4176 96.2808C77.0378 95.7222 76.6309 95.5909 76.0668 96.0424C75.4654 96.5228 74.9487 97.2322 74.4609 97.8243C73.8573 98.5695 73.2809 99.3365 72.7331 100.124C72.3254 100.701 71.8962 101.164 71.8617 101.905C71.8236 102.72 72.1345 103.506 72.4417 104.245C73.0124 105.617 73.8149 106.721 74.8035 107.817C75.1926 108.247 75.3816 108.576 75.9839 108.535C76.5341 108.497 77.1178 108.39 77.5116 107.967C78.2759 107.138 78.4342 106.253 78.4621 105.161ZM106.743 107.997C106.914 107.813 107.068 107.614 107.203 107.403C108.058 106.081 108.947 104.981 108.729 103.306C108.645 102.678 108.392 102.016 108.237 101.393C108.063 100.663 107.821 99.9514 107.514 99.2672C107.14 98.448 106.694 97.4854 105.996 96.8896C105.328 96.3189 104.386 95.3638 103.459 96.1244C102.741 96.7136 102.497 98.2376 102.532 99.0801C102.573 100.13 102.476 101.2 102.449 102.259C102.405 103.903 102.276 105.587 102.421 107.228C102.501 108.133 102.796 108.737 103.727 109.028C104.868 109.385 105.973 108.834 106.743 107.997Z"
        fill="#FEFEFE" stroke="#969593" stroke-width="1.06958" />
    <path
        d="M24.4451 31.4451C25.5948 29.0656 32.0434 20.8762 35.7318 20.9143C46.27 21.0223 55.1167 32.3807 56.4154 33.0165C60.8168 35.1717 64.7054 34.5405 69.5025 34.5107M8.16016 59.8387C8.40406 59.8546 8.56604 59.7028 8.76899 59.5883C11.0954 58.2869 13.2496 56.9649 15.0919 54.9997C19.0493 50.7807 19.2067 47.2106 21.6671 42.0653M51.8389 61.1718C52.1303 60.4736 51.6601 59.7019 51.4702 59.0446C51.2803 58.3874 51.1844 57.6976 51.0923 57.0217C50.7543 54.5436 50.9908 51.8839 51.7048 49.509M59.17 56.1727C57.512 55.4112 57.9645 51.8383 57.9672 50.4353C57.97 49.4132 57.8741 48.3631 58.0994 47.3576C58.3731 46.1279 58.9689 45.0024 59.4381 43.8424M62.8361 55.5062C62.8956 53.6163 63.3071 51.7703 63.5706 49.9047C63.7931 48.323 63.6208 46.7367 63.7493 45.1485C63.8182 44.2986 64.2865 43.5911 64.3693 42.7756M45.2404 48.7745C45.2339 49.4811 44.9052 50.183 44.7069 50.8515C44.3039 52.2069 43.8542 53.6294 43.6513 55.0267C43.2984 57.4518 42.8981 60.5546 43.8402 62.8987C44.2433 63.9051 44.7917 65.3564 45.5727 66.103M39.2414 73.7023C39.3001 73.0916 39.0022 72.534 38.842 71.9558C38.4706 70.6153 38.4203 69.2096 38.1746 67.8411C36.9401 60.9326 36.766 52.3158 41.3072 46.5077M63.1023 55.9065C63.4458 55.9158 63.4989 55.7044 63.6944 55.428C64.3069 54.5659 64.8227 53.5661 65.4092 52.6724C66.2638 51.3653 67.2366 50.1458 68.1005 48.8509C68.6172 48.0754 69.2921 47.0672 69.3675 46.1093M33.1093 83.8328C33.2573 83.452 33.1987 82.8767 33.1661 82.4634C33.0553 81.0846 32.722 79.7171 32.7099 78.3356C32.6941 76.7809 32.7109 75.2253 32.7109 73.6697C32.7118 70.5604 32.7127 67.452 32.7109 64.3426C32.709 62.5906 32.655 60.8386 32.6504 59.0875C32.6448 57.5486 33.0199 56.3868 33.4361 54.9178C34.0728 52.6798 34.7366 50.5182 35.6433 48.3752M9.31545 95.8744C9.97548 95.436 10.4773 94.0312 10.8105 93.3255C11.9789 90.8539 12.5123 88.1588 13.1993 85.5308C13.8789 82.9307 14.6441 80.3594 15.1292 77.7081C15.4531 75.944 16.2714 74.0635 16.7574 72.2882C17.9145 68.0654 19.1145 63.8762 20.2409 59.674C21.1914 56.1345 21.4242 52.4797 22.3775 48.9523M15.2697 117.914C15.1729 116.833 15.8963 115.329 16.1504 114.286C16.8263 111.518 17.2592 108.68 17.7823 105.881C18.0979 104.194 18.1119 102.466 18.0774 100.756C18.0467 99.183 18.1249 97.741 18.1826 96.1603C18.2599 94.0815 18.1249 92.0045 18.2413 89.9257C18.488 85.5308 19.377 81.1284 19.9337 76.7641C20.5668 71.819 21.1309 66.8645 21.8319 61.9278C22.5217 57.0599 23.6603 52.7804 25.5762 48.2411M26.2893 114.447C25.3658 113.474 25.2941 111.764 24.9543 110.541C24.6089 109.299 24.5419 108.084 24.3659 106.807C23.3642 99.4865 23.8102 91.6396 24.7476 84.3848C25.1703 81.1144 25.4691 77.8152 26.0118 74.569C26.2874 72.9249 28.0748 62.6129 28.2647 61.3543C28.7916 57.8652 30.2039 54.7391 31.7967 51.6186M68.1005 4.34082C69.2521 5.10512 70.3822 6.1096 71.3551 7.09547C72.3456 8.10088 73.1136 9.2869 73.9245 10.4422C74.4709 11.2205 74.9206 12.0695 75.0481 13.0265C75.1459 13.7554 75.1589 14.4275 74.7223 15.0485M65.1681 12.6495C65.4501 11.739 65.6726 10.5809 66.4416 9.93483C67.4423 9.09327 68.1247 9.4526 69.1972 9.91528C70.1542 10.3268 71.1177 10.7671 72.0989 11.1162M76.6316 95.6966C77.6091 95.6408 81.1923 88.5107 81.5516 87.6142C81.8868 86.7717 83.6593 80.4553 84.0736 78.0796C84.5977 75.0829 85.1386 72.0731 85.3629 69.0364M103.692 95.8968C103.596 95.368 103.125 94.8439 102.904 94.3384C102.614 93.6728 102.391 92.9811 102.112 92.3108C100.763 89.0758 99.3289 85.9013 98.2397 82.562C97.439 80.1098 96.7082 77.6353 96.0482 75.1415C95.4468 72.8635 95.2532 70.7 95.0261 68.3699"
        stroke="#969593" stroke-width="1.06958" />
    <path
        d="M64.9472 90.5423C65.313 90.3887 65.7776 90.6084 66.0997 90.8048C66.7578 91.206 67.4197 91.624 68.0733 92.042C68.5704 92.3595 69.2816 92.8417 69.9268 92.6788C70.7199 92.4777 70.57 91.4481 70.9554 90.896C71.6201 89.9437 72.7326 90.5776 73.5248 90.9444C74.1076 91.2135 74.6876 91.4834 75.3439 91.4313C76.246 91.3587 77.1266 91.1334 78.0259 91.0366C78.713 90.963 79.5089 90.7806 80.1876 90.9863M101.917 91.6966C102.929 91.2656 103.883 90.8104 105.026 90.8094C105.976 90.8085 106.837 91.6045 107.781 91.1781C108.766 90.7312 109.07 89.7277 110.167 90.735C110.734 91.2554 110.999 92.218 111.703 92.5866C112.157 92.8249 112.145 92.5866 112.452 92.325C112.946 91.9042 113.632 91.5588 113.957 90.9863M111.07 34.1106C112.253 33.7056 113.888 34.4765 115.179 34.483C119.271 34.5053 122.685 32.8734 126.138 30.7918C128.179 29.562 130.112 28.0986 132.052 26.7152C133.716 25.5292 135.129 23.8144 136.903 22.8202C143.989 18.8562 154.068 23.1656 156.746 30.6438M116.979 54.9944C116.947 54.662 116.653 54.4414 116.455 54.1937C115.949 53.5635 115.548 52.8821 115.155 52.1783C114.477 50.9699 113.74 49.7951 113.084 48.5737C112.781 48.0077 112.418 47.4342 112.188 46.8319C111.974 46.2705 111.979 45.6738 111.912 45.0845M121.734 56.0165C121.958 55.9383 122.041 55.539 122.138 55.3248C122.548 54.3995 122.855 53.5356 123.038 52.5348C123.254 51.3702 123.257 50.2037 123.254 49.0224C123.246 46.817 122.231 44.93 121.245 43.042M117.424 54.6387C117.528 53.853 117.641 53.1055 117.647 52.2909C117.661 50.3378 117.579 48.4173 117.336 46.48C117.183 45.2558 117.107 43.9199 117.468 42.7311M127.91 62.2371C128.279 61.2456 128.792 60.2886 129.025 59.2497C129.701 56.2279 129.15 52.8876 128.62 49.8844M135.863 68.1913C136.109 68.223 137.092 62.3646 137.172 61.5808C137.401 59.3651 137.195 57.1262 136.726 54.9553C136.278 52.8718 135.697 50.6701 134.531 48.8623M140.686 73.6345C140.884 73.4335 140.98 73.0453 141.08 72.766C141.46 71.7094 141.831 70.5997 142.108 69.5151C142.894 66.4793 143.123 63.2276 142.932 60.1257C142.615 54.9925 140.351 49.7504 138.955 44.7745M145.751 83.765C146.202 83.4355 149.217 72.2093 148.682 65.5437C148.507 63.384 148.371 60.8369 148.081 58.5273C147.763 55.9756 146.685 49.5158 145.263 47.3234M154.347 114.224C155.496 112.017 155.374 107.392 155.503 104.912C155.759 100.08 155.723 95.2389 155.656 90.4017C155.583 85.2834 150.887 51.8664 148.748 47.841M165.812 119.29C164.873 114.266 164.357 109.075 163.619 103.992C162.746 97.9879 157.549 56.0594 154.215 47.3216M170.612 94.496C167.767 87.445 166.106 79.9714 164.104 72.6729C162.928 68.4123 161.722 64.1602 160.484 59.9172C159.419 56.2427 157.786 52.2378 157.679 48.3735M172.344 59.838C171.137 60.1024 168.552 55.9858 167.789 55.0632C164.056 50.5417 161.593 47.5077 159.425 42.0413M42.3086 111.758C42.5115 111.536 42.6316 111.123 42.8253 110.842C43.4415 109.939 44.5131 109.464 45.4794 109.042C47.2807 108.254 49.2385 107.423 51.1739 107.026M50.4394 114.757C50.7029 114.708 50.7969 114.511 51.0138 114.312C51.9941 113.414 53.0125 112.749 54.2069 112.135C56.2233 111.1 58.2919 110.269 60.2375 109.091M49.7729 120.557C50.836 119.886 53.006 119.718 54.2395 120.09M81.9647 103.227C82.176 103.207 82.3138 103.411 82.5661 103.573C83.673 104.285 84.9931 104.812 86.2647 105.134C90.103 106.107 95.0528 105.952 97.8289 102.762"
        stroke="#969593" stroke-width="1.06958" />
    <path
        d="M78.2969 106.421C78.7326 106.43 79.1533 106.726 79.5471 106.887C80.5321 107.289 81.5626 107.739 82.6146 107.953C84.5509 108.349 86.5813 108.555 88.5595 108.554C93.5429 108.55 98.2413 108.503 102.354 105.445"
        stroke="#969593" stroke-width="1.06958" />
    <path
        d="M129.589 114.123C128.499 113.223 127.271 112.387 126.094 111.569C123.89 110.033 121.705 108.566 119.223 107.525M136.052 114.858C136.052 113.858 136.109 112.843 136.06 111.846C135.894 108.589 132.353 106.784 129.421 107.192M126.288 120.889C126.592 119.625 129.143 119.325 130.222 119.156ZM132.554 116.756C132.971 115.496 135.689 115.625 136.752 115.623ZM136.085 112.023C136.641 111.143 138.781 110.754 139.684 111.357Z"
        fill="#FEFEFE" />
    <path
        d="M129.589 114.123C128.499 113.223 127.271 112.387 126.094 111.569C123.89 110.033 121.705 108.566 119.223 107.525M136.052 114.858C136.052 113.858 136.109 112.843 136.06 111.846C135.894 108.589 132.353 106.784 129.421 107.192M126.288 120.889C126.592 119.625 129.143 119.325 130.222 119.156M132.554 116.756C132.971 115.496 135.689 115.625 136.752 115.623M136.085 112.023C136.641 111.143 138.781 110.754 139.684 111.357"
        stroke="#969593" stroke-width="1.06958" />
    <path
        d="M76.0555 117.463C76.7919 117.012 77.532 116.887 77.5217 115.958C77.5078 114.905 77.4398 113.745 77.0777 112.749C76.7667 111.888 76.265 111.068 75.8768 110.238C75.6757 109.809 75.2363 109.111 75.4774 108.666M104.76 109.021C104.396 109.769 105 111.098 105.34 111.787C105.718 112.555 106.33 113.267 106.845 113.953C107.153 114.363 107.373 114.852 107.913 114.976M79.6536 109.509C79.5968 110.261 80.1507 111.449 79.6536 112.131M83.2079 111.198C82.3654 111.678 83.3401 113.492 84.0076 113.731M86.8078 111.598C85.9765 111.415 86.5053 113.898 86.8534 114.264M90.0959 111.864C90.4301 112.307 90.9598 113.498 90.5409 114.042M92.7174 111.242C93.0703 111.471 93.6465 111.792 93.8923 112.151C94.2526 112.676 94.1436 113.686 94.0505 114.264M96.8052 110.443C97.4252 111.26 97.8488 111.949 98.0052 113.02M100.316 108.977C100.316 109.286 100.244 109.676 100.341 109.969C100.539 110.568 101.295 111.07 101.648 111.598M79.6536 117.82C79.5177 118.099 79.5363 118.53 79.4786 118.85C79.3653 119.488 79.1788 120.11 78.9228 120.705C78.5039 121.685 77.9127 122.621 77.3514 123.523C76.9501 124.169 76.3618 124.633 75.9205 125.238M76.9622 112.109C75.4671 112.365 74.027 113.01 73.852 114.559M83.5198 118.485C83.5142 119.641 83.2414 120.641 82.8495 121.738C82.2881 123.302 81.4 124.922 80.5435 126.349M87.075 119.818C86.7241 122.546 85.9328 125.286 85.9197 128.039M90.6293 119.864V129.95M93.5627 119.73C93.5646 120.967 93.6754 122.128 93.8625 123.355C94.0915 124.855 94.1101 126.516 94.6277 127.952M96.8508 119.196C96.8266 119.466 96.9178 119.647 97.0146 119.906C97.3377 120.774 97.7129 121.637 98.0927 122.484C98.6671 123.756 99.2964 125.046 100.184 126.13M100.495 117.731C100.376 118.216 100.825 118.909 101.006 119.315C101.387 120.171 101.762 121.029 102.229 121.844C102.757 122.762 103.274 123.788 104.138 124.44M103.959 109.11C103.599 109.362 103.42 110.288 103.281 110.696C102.987 111.567 102.935 112.496 102.937 113.408C102.939 115.118 102.987 116.959 103.699 118.548C104.028 119.288 104.526 119.953 105.225 120.379C105.599 120.606 106.016 120.755 106.443 120.84C106.968 120.946 107.412 120.787 107.914 120.842M71.3459 131.15C70.4978 131.047 69.3136 132.014 69.4784 132.928M74.8108 134.082C73.5448 133.951 72.9099 135.124 73.0337 136.304M79.877 136.126C78.9842 136.442 78.8632 137.93 78.543 138.704M83.786 137.548C84.8063 137.479 84.7477 139.435 84.231 139.948M90.0075 137.992C89.9749 139.227 90.0624 140.524 90.3622 141.725M95.9618 137.192C95.9673 138.394 95.9422 139.446 96.4077 140.57M100.227 135.769C100.286 136.885 101.411 137.691 101.294 138.97M104.76 133.815C105.296 134.608 106.191 135.206 106.538 136.126M108.58 130.438C109.642 131.467 110.76 132.329 111.426 133.727M42.551 117.953C43.6951 117.491 45.3848 117.009 46.5503 117.685M32.1766 30.3737C32.1412 31.798 34.2694 32.1667 35.3418 31.9405M30.7439 33.605C31.0958 33.8628 31.1973 34.2157 31.713 34.3078C32.5872 34.4652 33.345 34.0025 34.1093 33.6385M27.844 36.772C27.8282 37.1891 28.4808 37.3269 28.7861 37.3995C29.6985 37.6155 30.7877 37.5652 31.4775 36.8716M30.7104 39.0379C31.3071 39.7911 31.9001 40.1309 32.8655 40.2342C33.5833 40.3115 34.2265 40.1374 34.6753 39.5378M33.7099 36.8381C34.2787 37.4497 35.2115 38.5371 36.0093 37.5373M36.0754 34.7063C36.3519 35.0963 37.1534 35.3272 37.6142 35.3719C38.1626 35.424 38.5098 35.236 38.8747 34.8394M38.2417 31.4061C38.507 32.0335 39.5878 32.4208 40.179 32.5754C40.974 32.783 41.5465 32.6005 41.7737 31.7394M45.2405 34.5387C44.6763 35.3961 43.7975 35.3579 42.8936 35.1354C42.4607 35.0293 42.1302 34.8543 41.7476 34.6486C41.5875 34.5629 41.5167 34.481 41.3417 34.4726M38.5089 36.9722C38.6159 37.3483 39.1764 37.7179 39.5282 37.8677C40.1296 38.1219 40.6947 38.0763 41.176 37.6387M36.175 40.1709C36.4133 40.6317 37.1543 40.8924 37.6356 40.964C38.3041 41.0618 38.9958 40.7313 39.2415 40.0713M40.8074 40.304C41.8035 40.6764 42.4858 40.9836 43.1403 39.9046M44.4408 32.2393C44.4902 32.2095 45.0897 32.8695 45.3345 32.9375C46.1491 33.1628 46.9571 32.7243 47.3062 31.973M47.2727 34.805C47.4366 34.7752 48.1124 35.5162 48.4299 35.6214C49.0434 35.8253 49.5321 35.4361 49.9389 35.0051M43.8739 37.5717C44.9081 38.3472 46.3306 39.2027 47.4068 37.972M50.1391 37.1053C51.03 37.9478 52.4581 38.8015 53.0706 37.2049M126.22 35.1056C126.945 35.9547 130.516 37.9599 130.953 36.0384M128.575 32.6833C128.789 32.6638 128.772 32.7476 128.937 32.8453C129.388 33.1125 129.762 33.4914 130.25 33.7204C130.761 33.9587 131.971 34.3022 132.175 33.484M131.954 30.3737C132.534 30.6874 133.165 31.0225 133.827 31.1268C134.774 31.2739 135.232 31.0486 135.864 30.3737M135.285 32.5065C135.45 32.8165 135.921 33.0101 136.254 33.0855C136.89 33.2298 137.246 33.0241 137.685 32.5512M138.53 29.3506C138.983 29.8561 139.363 30.3728 140.046 30.6008C140.826 30.8615 141.201 30.5143 141.683 29.884M143.994 28.9065C144.655 29.0424 145.205 29.7416 145.907 29.9231C146.881 30.1754 147.52 29.1979 147.772 28.374M145.861 31.4843C146.332 31.6407 146.507 32.3259 147.063 32.499C147.919 32.7681 148.558 32.1034 149.103 31.528M140.485 32.5949C141.256 33.0222 141.985 33.4169 142.879 33.577C143.921 33.7642 143.94 33.618 144.26 32.728M133.776 35.4827C133.938 36.0105 135.212 36.4369 135.704 36.5346C136.361 36.665 137.379 36.7711 137.641 35.9723M139.285 35.4389C140.168 35.9435 141.408 36.6138 141.906 35.2611M143.683 35.1727C143.842 36.3168 146.108 36.3298 146.173 35.128M148.483 34.7724C149.281 34.7119 151.248 36.8325 151.639 35.2164M145.815 38.3276C146.552 39.6719 148.469 39.1645 149.195 38.1498M141.418 37.972C142.154 38.5995 143.268 39.0677 144.039 38.2383M136.53 38.0604C136.704 38.431 137.446 38.7773 137.82 38.9132C138.537 39.1748 139.072 39.1031 139.419 38.3714"
        stroke="#969593" stroke-width="1.06958" />
    <path
        d="M74.0117 127.955C75.1549 129.598 83.4459 132.921 90.0211 132.921C96.8477 132.921 106.128 129.721 106.716 127.955"
        stroke="#969593" stroke-width="1.06958" />
    <path
        d="M79.2516 47.975C79.2516 48.3967 79.5048 49.1331 79.1055 49.4543C78.6195 49.8425 78.155 49.297 77.9101 48.8771C77.4074 48.0132 77.6653 46.8765 77.3683 45.953C77.0602 44.9904 76.6738 43.8975 76.146 43.0671C75.6517 42.2889 75.1564 41.7768 74.8967 40.8627C74.6155 39.8731 74.542 38.9877 74.542 37.933C74.542 36.2685 74.9172 35.2277 75.768 33.9123C76.0399 33.4915 76.8926 32.3455 77.5666 32.7719C78.1857 33.1638 77.184 34.7473 78.4463 34.6514C79.1427 34.5984 79.1799 33.579 79.9405 33.5855C80.8175 34.9074 79.0273 36.1828 79.516 37.5755C80.1258 39.308 81.8797 36.208 82.5415 35.7192C82.8115 36.7907 82.7464 37.6658 82.1627 38.6489C81.7316 39.375 81.1061 39.9811 81.2932 40.9548C81.3909 41.4659 81.2168 41.5553 81.8257 41.5776C82.6123 41.6046 82.3461 40.9967 82.8236 40.6672C83.8737 39.9429 83.0219 41.7675 83.8691 42.0924C84.7665 42.4369 86.8127 38.2728 86.2551 42.1129C86.1703 42.6929 85.5792 43.878 86.2011 44.4012C87.3089 45.334 87.5686 43.1639 87.9559 42.6612C88.9539 41.3626 89.1205 43.0634 88.7397 43.8705C88.346 44.7056 88.0462 44.8964 88.0471 45.9316C88.049 47.6176 87.5872 50.1665 88.4921 51.5405C89.4296 50.6915 88.8356 48.5811 88.8487 47.4407C88.857 46.6959 89.0209 46.4139 89.3588 45.8236C89.5915 45.4159 89.7545 44.3481 90.1092 44.066C91.4916 42.9703 92.9178 49.1341 93.7389 49.8323C94.0694 49.0009 93.9949 47.4565 93.8934 46.5321C93.7789 45.495 93.1114 44.6665 93.2027 43.622C93.3702 41.7052 94.6791 44.3611 95.2247 44.9988C95.6482 45.495 96.9553 47.315 97.4552 47.3439C97.5064 46.1709 97.1806 45.468 96.5568 44.511C96.244 44.0316 95.4388 43.069 95.5133 42.4676C95.7721 40.3814 98.6915 44.5427 99.2463 42.8269C99.6187 41.6698 98.9428 41.5004 98.3573 40.8701C97.835 40.3078 97.7559 39.3499 98.8013 39.5323C99.359 39.6292 100.134 40.7035 100.848 40.3357C101.461 40.0202 101.215 38.823 101.023 38.2895C100.771 37.5913 100.388 37.0924 100.243 36.3318C100.102 35.6001 99.6038 34.7678 99.6159 34.037C100.733 33.9476 100.951 34.387 101.711 34.9316C102.742 35.6717 102.576 34.5956 102.622 33.579C102.702 31.8307 100.665 31.1418 100.947 29.3274C101.967 29.252 102.182 29.5201 102.8 30.2686C103.091 30.6214 103.62 31.5468 104.131 31.6063C105.806 31.799 104.267 29.4428 103.879 28.9783C105.318 28.443 106.294 28.9457 106.618 30.4892C106.754 31.1446 106.744 31.8484 106.893 32.4218C107.048 33.0093 107.242 33.5622 107.33 34.1999C107.493 35.3701 107.751 37.4154 107.422 38.5744C107.244 39.1972 106.54 39.6329 105.84 39.159C105.3 38.7941 105.335 37.7896 105.04 37.3149C105.082 39.2419 104.424 41.0163 104.244 42.9107C104.165 43.743 104.44 47.895 102.887 47.1828C102.193 46.8635 101.824 44.6413 101.2 46.3747C100.808 47.4667 101.105 48.9041 100.758 50.0631C100.471 51.0248 100.049 51.9799 99.7602 52.9509C99.48 53.8921 99.5433 54.8277 99.4437 55.7996C99.3888 56.3414 99.3925 57.9454 98.5127 57.7601C97.7196 57.5944 97.7131 55.2578 97.5613 54.6666C97.3304 53.772 97.2346 52.8355 96.8473 51.9734C96.4833 51.1654 95.9564 50.5426 95.6911 51.6197C95.4602 52.5599 95.7199 53.8139 95.6911 54.7774C95.6492 56.1729 95.0562 57.412 94.8616 58.7711C94.7983 59.2087 94.9091 59.6025 94.8979 60.0335C94.8802 60.6311 94.5795 61.2083 94.3906 61.765C94.2742 62.1095 94.2267 62.2528 93.9577 62.0397C93.6104 61.7632 93.5071 60.9803 93.4475 60.5827C93.3144 59.6695 93.2669 58.759 93.091 57.8476C92.9308 57.0172 92.7018 56.387 92.7726 55.5408C92.847 54.6545 92.6367 53.5253 92.322 52.6995C92.2084 52.3989 92.0995 51.9269 91.7597 51.8412C90.3773 51.4912 91.1043 54.7876 91.2039 55.336C91.4162 56.4987 91.7811 57.6484 91.9394 58.8177C92.1088 60.0782 92.4616 61.2111 92.8322 62.3729C93.0397 63.0199 93.0416 63.706 93.0249 64.3996C93.0165 64.7468 92.7819 65.9682 92.1982 65.9179C91.6945 65.8761 91.4274 64.1008 91.1583 63.706C90.6566 62.9669 90.0933 62.3087 89.6502 61.482C88.6439 59.608 87.5854 57.7555 86.6014 55.8927C85.7161 54.2198 85.5299 52.2629 83.6885 51.3534C82.671 50.8516 81.807 50.4681 81.269 49.4012C80.6713 48.218 80.5931 46.9259 80.0559 45.7622C79.1771 46.1104 79.2507 47.1698 79.2516 47.975V47.975ZM80.3362 7.74731C79.9982 8.04614 79.6063 8.24908 79.1222 8.28352C78.7424 8.31145 78.4482 8.17088 78.1727 7.91767C77.9315 7.6989 77.7761 7.35631 77.4866 7.19712C77.1468 7.01093 75.701 7.29021 76.1237 6.62552C76.5035 6.02786 77.9585 6.1796 78.5683 5.9841C79.1781 5.78767 79.664 5.52702 80.1891 5.16023C81.2336 4.43223 82.2725 3.67631 83.5907 3.60742C83.6661 3.92208 83.3031 4.10454 83.075 4.24232C81.9383 4.92842 81.3965 6.81171 80.3362 7.74731V7.74731ZM65.5445 137.008C63.0589 138.161 59.2858 141.829 58.5792 142.5C57.4909 143.533 55.7538 145.521 56.4352 146.757C58.0886 149.755 61.8468 143.497 62.9872 142.133C63.623 141.371 66.1096 136.744 65.5445 137.008ZM87.361 143.985C85.7728 146.869 84.7218 153.099 84.5142 154.252C84.1949 156.024 83.9231 159.184 85.4628 159.897C89.1922 161.625 88.3888 152.896 88.5238 150.764C88.5992 149.576 87.7213 143.33 87.361 143.985V143.985ZM92.6059 143.826C91.9189 147.045 92.7149 153.312 92.8517 154.477C93.0593 156.267 93.7119 159.369 95.3922 159.608C99.4632 160.184 96.1668 152.06 95.6818 149.981C95.4081 148.819 92.7605 143.095 92.6059 143.826V143.826ZM69.7644 139.028C67.2825 140.681 63.8297 145.251 63.1799 146.09C62.181 147.383 60.6403 149.809 61.5796 151.027C63.8548 153.979 66.8617 146.623 67.8625 144.965C68.4201 144.039 70.3295 138.649 69.7644 139.028ZM76.1348 140.967C73.6539 143.018 70.4729 148.208 69.8705 149.167C68.9471 150.636 67.573 153.353 68.7292 154.473C71.5341 157.189 73.9043 149.192 74.7868 147.348C75.2802 146.318 76.699 140.499 76.1348 140.967V140.967ZM81.1684 142.919C79.111 145.393 76.9429 151.084 76.5296 152.135C75.8947 153.75 75.0466 156.671 76.3918 157.56C79.6501 159.712 80.5 151.413 81.0269 149.436C81.3183 148.336 81.6358 142.355 81.1684 142.919ZM115.029 137.197C117.396 138.298 120.987 141.79 121.663 142.429C122.699 143.414 124.355 145.307 123.705 146.484C122.131 149.339 118.55 143.379 117.465 142.079C116.858 141.354 114.489 136.946 115.029 137.197V137.197ZM110.59 139.433C113.072 141.088 116.525 145.656 117.173 146.497C118.171 147.788 119.714 150.215 118.774 151.433C116.5 154.385 113.493 147.029 112.492 145.372C111.934 144.446 110.025 139.057 110.59 139.433ZM104.221 141.373C106.701 143.425 109.881 148.615 110.485 149.572C111.407 151.043 112.783 153.758 111.627 154.879C108.821 157.596 106.452 149.6 105.568 147.754C105.074 146.723 103.655 140.906 104.221 141.373V141.373ZM99.1858 143.326C101.244 145.802 103.409 151.492 103.824 152.542C104.461 154.157 105.308 157.08 103.962 157.968C100.703 160.12 99.8542 151.821 99.3273 149.844C99.035 148.741 98.7185 142.76 99.1858 143.326Z"
        fill="#969593" />
</svg>